<?xml version="1.0" encoding="UTF-8"?> <svg xmlns="http://www.w3.org/2000/svg" viewBox="0 0 450 62.77"><g id="Layer_2" data-name="Layer 2"><g id="Layer_1-2" data-name="Layer 1"><g><g><path d="M242.51,13.79V6.9h6.14v.44c0,3.16-3.46,5.48-6,6.41Z" fill="#560e0e"></path><path d="M248.66,7.1h-8.85v-7h8.85Z" fill="#ba142a"></path></g><g><path d="M16.88,10.77a5,5,0,0,0,1.8-.22l-.57,5.82h-.05c-1-3.29-1.89-5-4.51-5H12.49L9.1,25a5.77,5.77,0,0,0-.22,1.32,1.81,1.81,0,0,0,.91,1.55V28H2.45V27.9A3.62,3.62,0,0,0,4.54,25L8,11.41H7.09c-2.62,0-4.1,1.62-7,5H0l2.23-5.82a3.88,3.88,0,0,0,1.67.22Z" fill="#ba142a"></path><path d="M21.23,28H16.91l3.93-15.73A7.41,7.41,0,0,0,21,11.07c0-.74-.4-1-1.08-1.45v0h5.86l-2.5,10.11c1.18-2.41,3-4.12,5.28-4.12a2.4,2.4,0,0,1,2.65,2.67,6.39,6.39,0,0,1-.2,1.45L29.6,25.45a2.05,2.05,0,0,0-.08.51.86.86,0,0,0,1,.91,3.48,3.48,0,0,0,1.3-.34v0a4.82,4.82,0,0,1-3.65,1.62c-1.89,0-2.85-1.08-2.85-2.5a4,4,0,0,1,.12-.88l1.33-5.25a6.13,6.13,0,0,0,.15-1,.78.78,0,0,0-.89-.9c-1.1,0-2.57,1.42-3.26,4.14Z" fill="#ba142a"></path><path d="M32.27,23.29a8.05,8.05,0,0,1,8.17-7.76c2.38,0,4,1.11,4,2.73,0,2.7-3.31,3.75-7.7,3.82a5.87,5.87,0,0,0-.1,1.16c0,2.21,1.28,3.16,2.92,3.16A4.43,4.43,0,0,0,43,24.61h.15a6.08,6.08,0,0,1-5.77,3.58C34.38,28.19,32.27,26.33,32.27,23.29Zm4.44-1.5A4.85,4.85,0,0,0,41.3,17c0-.64-.24-1.06-.78-1.06C39,16,37.2,19,36.71,21.79Z" fill="#ba142a"></path></g><g><path d="M61.92,21.05c0-6.61,4.48-11.74,11.6-11.74S85.06,14.39,85.06,21,80.59,32.8,73.47,32.8,61.92,27.72,61.92,21.05ZM77.43,21c0-8.29-.3-11.39-3.91-11.39s-4,3.21-4,11.39c0,8.44.31,11.5,4,11.5S77.43,29.29,77.43,21Z" fill="#110103"></path><path d="M108.86,9.81V32.29H102l0-3a7.57,7.57,0,0,1-6.56,3.51c-4.17,0-6.62-2.49-6.62-6.86V13.88c0-1.68-.35-2.34-2-4V9.81h9V26.6c0,2.34.66,3.81,2.9,3.81a4.52,4.52,0,0,0,3.31-1.47V13.88c0-1.68-.36-2.34-2-4V9.81Z" fill="#110103"></path><path d="M130,10.17V16h-.05c-4.07-1.83-5.55-2.34-6.87-2.34a4,4,0,0,0-1.68.3V28.43c0,1.63.36,2.18,2.09,3.81v0h-11v0c1.58-1.57,1.94-2.24,1.94-3.81V13.88c0-1.68-.36-2.34-2-4V9.81h8.8l.2,3.92c1.83-3.2,4-4.42,6-4.42A4.18,4.18,0,0,1,130,10.17Z" fill="#110103"></path><path d="M156.11,32.24v0H145.43v0c1.47-1.57,1.78-2.24,1.78-3.81V15.56c0-2.08-.82-3.61-3.16-3.61a4.61,4.61,0,0,0-3.35,1.42V28.43c0,1.57.3,2.24,1.78,3.81v0H131.8v0c1.57-1.57,1.93-2.24,1.93-3.81V13.88c0-1.68-.36-2.34-2-4V9.81h8.79l.16,3.26a7.25,7.25,0,0,1,6.66-3.76c4.47,0,6.86,2.54,6.86,6.86V28.43C154.17,30,154.53,30.67,156.11,32.24Z" fill="#110103"></path><path d="M177.21,14.85V32.29H170.3l-.05-2.54a7.09,7.09,0,0,1-5.85,3c-3.51,0-6.21-2.08-6.21-6,0-4.93,4.58-6,12.06-7.63V12.82c0-2-.77-3.11-2.5-3.11-1.57,0-3,1-8.54,5.95h-.05l.25-4.32a31.29,31.29,0,0,1,10.22-2C174.67,9.31,177.21,11.19,177.21,14.85Zm-7,14.54V19.63c-4.28.81-5.24,2.29-5.24,6.1,0,3.56.61,4.88,2.54,4.88A3.72,3.72,0,0,0,170.25,29.39Z" fill="#110103"></path><path d="M191.45,32.24v0H180.62v0c1.58-1.57,1.93-2.24,1.93-3.81V6.15c0-1.83-.35-2.49-2.18-4.32V1.78h9.15V28.43C189.52,30,189.88,30.67,191.45,32.24Z" fill="#110103"></path><path d="M204.37,32.24v0H193.54v0c1.57-1.57,1.93-2.24,1.93-3.81V13.88c0-1.68-.36-2.34-2-4V9.81h9V28.43C202.44,30,202.79,30.67,204.37,32.24ZM195,3.51a3.88,3.88,0,0,1,7.73,0,3.88,3.88,0,0,1-7.73,0Z" fill="#110103"></path><path d="M222.42,13.68c-4.83-3.36-6.15-4.07-7.52-4.07a2.72,2.72,0,0,0-3,2.9c0,2.24,1.62,3.36,5.33,5.59,3.41,2,5.65,3.87,5.65,7.63,0,4.27-3.1,7.07-8.9,7.07a25.26,25.26,0,0,1-6.86-1l-.92-4.52h.05c5.09,4.32,6.51,5.19,8.14,5.19a2.91,2.91,0,0,0,3.1-3.21c0-2.39-1.68-3.46-5.49-5.8-2.85-1.72-5.39-3.81-5.39-7.47,0-4.07,2.84-6.71,8.69-6.71a43.74,43.74,0,0,1,6.82.66l.35,3.71Z" fill="#110103"></path><path d="M224.05,9.81h2.85l.3-5.18h6.66V9.81h4.89v.36h-4.89V27.26c0,2,.82,3.25,2.7,3.25a2.69,2.69,0,0,0,2.59-1.32l.11,0c-.56,1.93-2.65,3.56-5.9,3.56-4.38,0-6.46-2.39-6.46-5.85V10.17h-2.85Z" fill="#110103"></path><path d="M264.35,13.68c-4.83-3.36-6.15-4.07-7.53-4.07a2.73,2.73,0,0,0-3,2.9c0,2.24,1.63,3.36,5.34,5.59,3.41,2,5.65,3.87,5.65,7.63,0,4.27-3.11,7.07-8.9,7.07a25.39,25.39,0,0,1-6.87-1l-.91-4.52h.05c5.08,4.32,6.51,5.19,8.13,5.19a2.92,2.92,0,0,0,3.11-3.21c0-2.39-1.68-3.46-5.5-5.8-2.84-1.72-5.39-3.81-5.39-7.47,0-4.07,2.85-6.71,8.7-6.71A43.61,43.61,0,0,1,264,10l.36,3.71Z" fill="#110103"></path><path d="M296.42,32.7h-3.71c-3.77,0-4.07-.41-7-5l-6.1-9.61h-1.53v10c0,1.73.36,2.49,2.09,4.17v0h-11.4v0c1.73-1.68,2.09-2.44,2.09-4.17V6c0-1.73-.36-2.49-2.09-4.17V1.78h12.41c8.09,0,12.56,2.64,12.56,7.63,0,4-2.9,6.25-6.45,7.37ZM286.2,10.53c0-6.41-1.33-8.39-6.61-8.39h-1.53V17.75h2.8C285,17.75,286.2,16.12,286.2,10.53Z" fill="#110103"></path><path d="M303.23,19.88v.21c0,5.49,1.68,8.85,6.77,8.85,3.2,0,5.49-1.33,6.71-3.46l.1.05c-.81,4.27-4.12,7.27-9.56,7.27-7.22,0-11-5-11-11.7s4-11.79,11-11.79c6.31,0,9.72,4,9.72,9.4a7.26,7.26,0,0,1-.06,1.17Zm0-2.95v2.6h7v-4c0-3.81-.66-5.9-3.3-5.9C304,9.61,303.23,12.41,303.23,16.93Z" fill="#110103"></path><path d="M335.58,13.68c-4.83-3.36-6.16-4.07-7.53-4.07a2.73,2.73,0,0,0-3,2.9c0,2.24,1.63,3.36,5.34,5.59,3.41,2,5.64,3.87,5.64,7.63,0,4.27-3.1,7.07-8.89,7.07a25.39,25.39,0,0,1-6.87-1l-.92-4.52h.06c5.08,4.32,6.5,5.19,8.13,5.19a2.91,2.91,0,0,0,3.1-3.21c0-2.39-1.67-3.46-5.49-5.8-2.85-1.72-5.39-3.81-5.39-7.47,0-4.07,2.85-6.71,8.7-6.71a43.61,43.61,0,0,1,6.81.66l.36,3.71Z" fill="#110103"></path><path d="M338.48,21.05c0-6.61,4.47-11.74,11.59-11.74S361.61,14.39,361.61,21,357.14,32.8,350,32.8,338.48,27.72,338.48,21.05ZM354,21c0-8.29-.31-11.39-3.92-11.39s-4,3.21-4,11.39c0,8.44.31,11.5,4,11.5S354,29.29,354,21Z" fill="#110103"></path><path d="M385.41,9.81V32.29H378.5l-.05-3a7.56,7.56,0,0,1-6.56,3.51c-4.17,0-6.61-2.49-6.61-6.86V13.88c0-1.68-.36-2.34-2-4V9.81h9V26.6c0,2.34.66,3.81,2.9,3.81a4.52,4.52,0,0,0,3.31-1.47V13.88c0-1.68-.36-2.34-2-4V9.81Z" fill="#110103"></path><path d="M406.52,10.17V16h0c-4.07-1.83-5.54-2.34-6.87-2.34a4,4,0,0,0-1.68.3V28.43c0,1.63.36,2.18,2.09,3.81v0H389v0C390.6,30.67,391,30,391,28.43V13.88c0-1.68-.36-2.34-2-4V9.81h8.8l.2,3.92c1.84-3.2,4-4.42,6-4.42A4.17,4.17,0,0,1,406.52,10.17Z" fill="#110103"></path><path d="M427,14.19c-5.08-3.76-6.3-4.53-7.88-4.53-2.74,0-3.91,2.49-3.91,9.26S416.59,29,421.32,29a6.42,6.42,0,0,0,6.05-3.36l.05.05c-.71,4.32-4.07,7.12-9,7.12-6.81,0-10.27-5.08-10.27-11.7,0-6.91,3.86-11.79,11.49-11.79a38.21,38.21,0,0,1,7.27.81l.1,4.07Z" fill="#110103"></path><path d="M436.07,19.88v.21c0,5.49,1.67,8.85,6.76,8.85,3.2,0,5.49-1.33,6.71-3.46l.1.05c-.81,4.27-4.11,7.27-9.56,7.27-7.22,0-11-5-11-11.7s4-11.79,11-11.79c6.31,0,9.72,4,9.72,9.4a8.7,8.7,0,0,1-.05,1.17Zm0-2.95v2.6h7v-4c0-3.81-.66-5.9-3.3-5.9C436.83,9.61,436.07,12.41,436.07,16.93Z" fill="#110103"></path></g><g><path d="M277,43.67v0c-1.08.48-1.45,1.19-1.8,2.55l-2.3,9.19a5.6,5.6,0,0,0-.21,1.25,1.33,1.33,0,0,0,.78,1.29v0h-4.76v0c1.09-.47,1.46-1.19,1.81-2.54l2.3-9.19A5.42,5.42,0,0,0,273,45a1.35,1.35,0,0,0-.76-1.3v0Z" fill="#6d6e71"></path><path d="M278.62,58H276.3l2-7.91a2.33,2.33,0,0,0,.11-.72,1.54,1.54,0,0,0-.89-1.36v0h3.64l-.82,3.28c1-2,2.54-3.48,4.39-3.48A2,2,0,0,1,286.79,50a4.59,4.59,0,0,1-.14,1.13l-1.26,5a1.37,1.37,0,0,0-.06.39.78.78,0,0,0,.88.8,2.76,2.76,0,0,0,1.13-.31v0a3.38,3.38,0,0,1-2.48,1.17A1.63,1.63,0,0,1,283,56.58a2.61,2.61,0,0,1,.09-.66l1.19-4.7a5.84,5.84,0,0,0,.14-1.06c0-.62-.25-1-1-1-1.21,0-2.89,1.27-3.65,4.33Z" fill="#6d6e71"></path><path d="M293.19,48h2.53l-.25.54h-2.38L290.77,58c-.8,3.27-2.26,4.64-4.68,4.74v0c1.32-.59,2-2.85,2.73-6.09l1.85-8.1h-1.36l0-.17,1.46-.45.27-.94c.86-3,2.38-4.42,4.78-4.42,1.56,0,2.58.68,2.58,1.73a1.57,1.57,0,0,1-1.7,1.5,1.47,1.47,0,0,1-1.15-.46,1.33,1.33,0,0,0,1.13-1.43.89.89,0,0,0-1-1c-1.11,0-1.73,1-2.3,3.78Z" fill="#6d6e71"></path><path d="M301,47.8a3.86,3.86,0,0,1,4.14,4.06,6.2,6.2,0,0,1-5.88,6.38,3.88,3.88,0,0,1-4.15-4.06A6.21,6.21,0,0,1,301,47.8Zm0,.39c-1.35,0-2.46,1.76-3.08,3.87A11.07,11.07,0,0,0,297.5,55c0,1.52.37,2.85,1.77,2.85s2.48-1.76,3.07-3.88a11,11,0,0,0,.5-2.91C302.84,49.52,302.45,48.19,301.05,48.19Z" fill="#6d6e71"></path><path d="M314,50a.73.73,0,0,0-.82-.8c-1.38,0-2.87,2.34-3.43,4.58L308.72,58h-2.31l2-7.91a2.62,2.62,0,0,0,.1-.72A1.55,1.55,0,0,0,307.6,48v0h3.63l-.9,3.63c.9-1.93,2.13-3.83,3.93-3.83A1.58,1.58,0,0,1,316,49.4a1.93,1.93,0,0,1-2,2,1.37,1.37,0,0,1-.84-.25A1.12,1.12,0,0,0,314,50Z" fill="#6d6e71"></path><path d="M331.11,56.15a1.37,1.37,0,0,0-.06.39.77.77,0,0,0,.88.8A2.6,2.6,0,0,0,333,57l0,0a3.38,3.38,0,0,1-2.48,1.17,1.63,1.63,0,0,1-1.83-1.66,2.59,2.59,0,0,1,.08-.66L330,51.18a4.6,4.6,0,0,0,.19-1.13c0-.57-.25-.94-1-.94-1.19,0-2.81,1.27-3.55,4.33L324.54,58h-2.31l1.7-6.85a5.06,5.06,0,0,0,.18-1.13c0-.57-.24-.94-1-.94-1.19,0-2.79,1.27-3.55,4.33L318.45,58h-2.32l2-7.91a2.62,2.62,0,0,0,.1-.72,1.53,1.53,0,0,0-.88-1.36v0H321l-.82,3.26c1-2,2.45-3.46,4.27-3.46A2,2,0,0,1,326.45,50a4.14,4.14,0,0,1-.22,1.27c1-2,2.44-3.46,4.26-3.46a1.91,1.91,0,0,1,2,2.15,5,5,0,0,1-.17,1.19Z" fill="#6d6e71"></path><path d="M337,56.15a1.37,1.37,0,0,0-.06.39.78.78,0,0,0,.88.8,2.76,2.76,0,0,0,1.13-.31v0a3.38,3.38,0,0,1-2.48,1.17,1.64,1.64,0,0,1-1.83-1.66,2.59,2.59,0,0,1,.08-.66l1.46-5.8a2.75,2.75,0,0,0,.12-.72,1.57,1.57,0,0,0-.9-1.36v0H339Zm1.54-13a1.32,1.32,0,0,1,1.39,1.37,1.54,1.54,0,0,1-1.58,1.56,1.32,1.32,0,0,1-1.39-1.37A1.55,1.55,0,0,1,338.5,43.14Z" fill="#6d6e71"></path><path d="M342.58,58h-2.32l2-7.91a2.33,2.33,0,0,0,.11-.72,1.54,1.54,0,0,0-.89-1.36v0h3.64l-.83,3.28c1-2,2.55-3.48,4.4-3.48A2,2,0,0,1,350.75,50a4.19,4.19,0,0,1-.15,1.13l-1.25,5a1.37,1.37,0,0,0-.06.39.78.78,0,0,0,.88.8A2.76,2.76,0,0,0,351.3,57v0a3.38,3.38,0,0,1-2.48,1.17A1.63,1.63,0,0,1,347,56.58a2.23,2.23,0,0,1,.09-.66l1.19-4.7a5.84,5.84,0,0,0,.14-1.06c0-.62-.25-1-1-1-1.21,0-2.89,1.27-3.65,4.33Z" fill="#6d6e71"></path><path d="M350.77,60.23c0-1.27,1.39-2,3.32-2a2,2,0,0,1-1.7-2c0-1.4,1.27-2.18,2.46-2.46a2.61,2.61,0,0,1-1.19-2.16c0-2.17,1.89-3.83,4.78-3.83a3.87,3.87,0,0,1,2.65.94,3.08,3.08,0,0,1,2.11-1.31c.87,0,1.38.47,1.38,1.23a1.54,1.54,0,0,1-1.73,1.48v0a.8.8,0,0,0,.33-.73c0-.46-.28-.76-.88-.76a2.13,2.13,0,0,0-1.05.3,2.63,2.63,0,0,1,.66,1.71c0,2.17-1.89,3.83-4.78,3.83a4.07,4.07,0,0,1-2-.49A1.44,1.44,0,0,0,354,55.24c0,.54.39.95,1.13,1l3.61.08c1.78,0,3.08.78,3.08,2.3,0,2.79-3.1,4.16-6.22,4.16C353.17,62.75,350.77,61.93,350.77,60.23Zm4.51-1.89c-1.58,0-2.81.56-2.81,1.95s1.27,2.07,3.08,2.07c2.36,0,4.19-.9,4.19-2.62,0-1-.66-1.29-2.1-1.34Zm3.18-10.17c-1.29,0-2,1.29-2.38,2.91a8,8,0,0,0-.16,1.42c0,.94.33,1.57,1.19,1.57,1.29,0,2-1.29,2.38-2.91a8.2,8.2,0,0,0,.16-1.43C359.65,48.8,359.33,48.17,358.46,48.17Z" fill="#6d6e71"></path><path d="M371.21,55.88a2.35,2.35,0,0,0,0,.35c0,.66.47,1,1.14,1a2.76,2.76,0,0,0,1.95-1l0,.06a4,4,0,0,1-3.4,1.91c-1.36,0-2.09-.74-2.09-1.79a2.57,2.57,0,0,1,.1-.65l1.78-7.26h-1.33l0-.17a6.88,6.88,0,0,0,4.53-3.9h.17L373.16,48h2.77l-.23.54H373Z" fill="#6d6e71"></path><path d="M377.94,58h-2.32l3.3-13.25A2.93,2.93,0,0,0,379,44c0-.7-.39-1-1-1.31v0h3.79l-2.15,8.61c1-2,2.54-3.48,4.37-3.48A2,2,0,0,1,386.08,50a5.57,5.57,0,0,1-.12,1.13l-1.25,5a1.37,1.37,0,0,0-.06.39.77.77,0,0,0,.88.8,2.6,2.6,0,0,0,1.11-.31l0,0a3.39,3.39,0,0,1-2.49,1.17,1.62,1.62,0,0,1-1.82-1.66,2.59,2.59,0,0,1,.08-.66l1.19-4.7a5.84,5.84,0,0,0,.14-1.06c0-.62-.24-1-1-1-1.19,0-2.9,1.27-3.63,4.33Z" fill="#6d6e71"></path><path d="M387.93,54.2a6.4,6.4,0,0,1,6.2-6.4c1.78,0,3,.92,3,2.21,0,2.28-2.85,3.2-6.75,3.31a7.85,7.85,0,0,0-.06,1c0,2.07,1.07,3,2.63,3a4.15,4.15,0,0,0,3.28-1.81h.08a4.66,4.66,0,0,1-4.35,2.79A3.79,3.79,0,0,1,387.93,54.2Zm2.46-1.13c2.83-.25,4.76-1.42,4.76-3.67,0-.72-.35-1.21-1-1.21C392.38,48.19,390.8,50.63,390.39,53.07Z" fill="#6d6e71"></path><path d="M404.55,58h-2.32l2-7.91a2.62,2.62,0,0,0,.1-.72,1.53,1.53,0,0,0-.88-1.36v0h3.63l-.82,3.28c1-2,2.55-3.48,4.39-3.48a2,2,0,0,1,2.1,2.21,4.19,4.19,0,0,1-.15,1.13l-1.25,5a1.37,1.37,0,0,0-.06.39.78.78,0,0,0,.88.8,2.76,2.76,0,0,0,1.13-.31v0a3.38,3.38,0,0,1-2.48,1.17A1.63,1.63,0,0,1,409,56.58a2.59,2.59,0,0,1,.08-.66l1.19-4.7a5.16,5.16,0,0,0,.15-1.06c0-.62-.25-1-1-1-1.21,0-2.89,1.27-3.65,4.33Z" fill="#6d6e71"></path><path d="M414.56,54.2a6.4,6.4,0,0,1,6.2-6.4c1.79,0,3,.92,3,2.21,0,2.28-2.86,3.2-6.76,3.31a7.85,7.85,0,0,0-.06,1c0,2.07,1.07,3,2.63,3a4.13,4.13,0,0,0,3.28-1.81h.08a4.66,4.66,0,0,1-4.35,2.79A3.79,3.79,0,0,1,414.56,54.2ZM417,53.07c2.83-.25,4.76-1.42,4.76-3.67,0-.72-.35-1.21-1-1.21C419,48.19,417.44,50.63,417,53.07Z" fill="#6d6e71"></path><path d="M434.24,52.86a10.36,10.36,0,0,0-.49,2.77c0,1.36.57,2,1.64,2,2.38,0,3.88-3.61,3.88-5.93,0-1.45-.56-2.17-1.5-2.17a1.18,1.18,0,0,0-1.19.7,2,2,0,0,1,0-.33,1.87,1.87,0,0,1,1.8-2.07c1.4,0,2.12,1.13,2.12,2.66,0,3.49-2.48,7.78-5.87,7.78a3,3,0,0,1-3.14-2.73,3.83,3.83,0,0,1-3.41,2.73,2.76,2.76,0,0,1-3-2.91c0-1.83,1.7-3.61,3.86-5.63l-.91,0c-2,.12-2.62.28-3.11,1.21v-.25c0-1.52.77-2.75,2-2.75a21.54,21.54,0,0,1,2.56.7l.45-.78h.43c-1.78,2.93-3,5-3,6.89,0,1.42.67,2.26,1.76,2.26,1.31,0,2-1.29,2.53-2.89l1.23-4a2.75,2.75,0,0,0,.12-.72,1.59,1.59,0,0,0-.88-1.36v0h3.59Z" fill="#6d6e71"></path><path d="M446.74,47.8c1.82,0,3.26.82,3.26,2a1.25,1.25,0,0,1-1.35,1.27,1.31,1.31,0,0,1-1-.43c.47,0,.76-.49.76-1.07,0-.9-.64-1.43-1.79-1.43a1.84,1.84,0,0,0-2.07,1.72c0,.82.49,1.27,1.87,2.07,1.8,1.05,2.63,1.75,2.63,3,0,1.93-2,3.28-4.29,3.28-2.16,0-3.68-1-3.68-2.26a1.32,1.32,0,0,1,1.42-1.35,1.72,1.72,0,0,1,1.13.41,1,1,0,0,0-.88,1.09,1.85,1.85,0,0,0,2.09,1.76c1.35,0,2.34-.76,2.34-1.87,0-.8-.54-1.37-1.89-2.11-1.52-.82-2.52-1.6-2.52-2.95C442.76,49.17,444.54,47.8,446.74,47.8Z" fill="#6d6e71"></path></g><path d="M48.5,1.86V1.81H59.77v.05C58.06,3.52,57.7,4.28,57.7,6V29.87c0,7-3.08,10.47-12.15,11.55v-.05c4.3-2.73,4.78-4.24,5-8.59V6C50.57,4.28,50.21,3.52,48.5,1.86Z" fill="#110103"></path></g></g></g></svg> 