<?xml version="1.0" encoding="UTF-8"?> <svg xmlns="http://www.w3.org/2000/svg" viewBox="0 0 342.27 70.57" width="342.27" height="70.57"><g id="shorenstein-center-logo"><path d="M10.58 10.03h.25V11h-.25z" transform="rotate(-41.47 10.6978942 10.5128999)"></path><path fill="#fff" fill-rule="evenodd" d="M7.24 11a.58.58 0 11-.58.57.57.57 0 01.58-.57"></path><path d="M7.24 12.25a.76.76 0 01-.48-1.45.79.79 0 01.48 0 .76.76 0 01.49 1 .79.79 0 01-.49.49m0-1.14a.41.41 0 00-.42.41.43.43 0 00.4.42.41.41 0 00.42-.41.42.42 0 00-.4-.41"></path><path d="M7.84 11.55l-.08-.23.2-.11a1.44 1.44 0 01.66-.21 6.2 6.2 0 011.61 0 1.53 1.53 0 00.76-.14 1 1 0 00.12-.6V4.77c0-.3-.5-.71-.68-.82l.14-.21c.09.06.76.54.76 1v5.47a1.22 1.22 0 01-.17.77c-.26.29-.89.22-.95.22a5.6 5.6 0 00-1.53 0 1.37 1.37 0 00-.56.18 1 1 0 01-.28.14"></path><path d="M15.68 10.98l-.18-.17.64-.7.19.17-.65.7z"></path><path d="M18.78 11.51a1.26 1.26 0 01-.26-.13 1.12 1.12 0 00-.52-.18 5.6 5.6 0 00-1.53 0c-.07 0-.69.07-.95-.22a1.26 1.26 0 01-.18-.76V4.74c0-.5.7-1 .76-1l.14.21c-.18.12-.67.51-.67.83v5.42a1 1 0 00.11.62c.15.16.59.15.77.13A6.2 6.2 0 0118 11a1.52 1.52 0 01.65.22 1 1 0 00.21.1z"></path><path fill="#fff" fill-rule="evenodd" d="M17.89 5.71h.38a.91.91 0 01.31.64v.12c0 .22-.25.31-.3.38h-.34a.54.54 0 01-.11-.27 3.69 3.69 0 010-.47c0-.28 0-.16.08-.4"></path><path d="M53.96 12.8V7.76H50.7v5.04h-2.29V1.48h2.29v4.39h3.26V1.48h2.28V12.8h-2.28z"></path><path d="M65.21 12.8l-.76-2.69h-3.32l-.77 2.69H58l3.64-11.32h2.45l3.56 11.34zm-2-6.87l-.46-2s-.32 1.33-.54 2.18-.35 1.35-.6 2.1h2.21S63.49 7 63.25 6z"></path><path d="M74.83 12.8c-.43-.76-.62-1.06-1.06-1.85-1.12-2-1.46-2.59-1.87-2.77a1.07 1.07 0 00-.36-.1v4.72h-2.22V1.48h4.21a3.13 3.13 0 013.32 2.93 2.54 2.54 0 010 .39 2.91 2.91 0 01-2.52 3.12 2.37 2.37 0 01.47.48c.65.81 2.72 4.39 2.72 4.39zm-1.19-9.33a4.28 4.28 0 00-1.28-.16h-.82v3.05h.77c1 0 1.4-.1 1.71-.37a1.6 1.6 0 00.44-1.14 1.33 1.33 0 00-.82-1.38"></path><path d="M83.92 12.92h-2L78.07 1.53h2.48l1.88 5.88c.16.51.34 1.15.52 2a20 20 0 01.65-2.31l1.86-5.62h2.39z"></path><path d="M94.6 12.8l-.76-2.69h-3.33l-.76 2.69h-2.38L91 1.48h2.46l3.56 11.34zm-2-6.87c-.11-.52-.45-2-.45-2s-.32 1.33-.54 2.18-.36 1.35-.6 2.1h2.21S92.88 7 92.63 6z"></path><path d="M104.22 12.8c-.44-.76-.62-1.06-1.06-1.85-1.12-2-1.47-2.59-1.87-2.77a1.07 1.07 0 00-.36-.1v4.72H98.7V1.48h4.22a3.13 3.13 0 013.32 2.93 2.54 2.54 0 010 .39 2.9 2.9 0 01-2.52 3.12 2.37 2.37 0 01.47.48c.65.81 2.71 4.39 2.71 4.39zM103 3.47a4.28 4.28 0 00-1.28-.16H101v3.05h.76c1 0 1.4-.1 1.71-.37a1.52 1.52 0 00.44-1.14 1.32 1.32 0 00-.91-1.38"></path><path d="M116 11.11a3.93 3.93 0 01-2.76 1.63c-.41 0-1 .06-1.62.06h-2.75V1.48h2.29a19.29 19.29 0 012 .06 3.77 3.77 0 012.47 1.13 5.92 5.92 0 011.53 4.51 6.49 6.49 0 01-1.16 3.93m-2-6.87a1.9 1.9 0 00-1.8-1h-1v7.63h1.22c1.52 0 2.18-1.16 2.18-3.54a6.41 6.41 0 00-.6-3.1z"></path><path d="M120.85.79h2v12h-2zm6.1 12l-4-6.41 3.9-5.6h2.47l-4.22 5.58 4.45 6.44z"></path><path d="M132 8.92v.19c0 1.21.45 2.5 2.17 2.5a3.3 3.3 0 002.19-.87l.76 1.16a4.77 4.77 0 01-3.12 1.17c-2.49 0-4-1.8-4-4.58a4.78 4.78 0 011-3.44 3.31 3.31 0 012.69-1.18 3.4 3.4 0 012.41.9c.76.7 1.15 1.77 1.15 3.82V9zm1.69-3.67c-1.08 0-1.67.85-1.67 2.29h3.26c0-1.44-.64-2.29-1.59-2.29"></path><path d="M144.12 12.8V7c0-1.2-.28-1.52-1-1.52a3.1 3.1 0 00-1.92 1v6.37h-1.88v-6.5a5 5 0 00-.32-2.09l1.74-.48A2.58 2.58 0 01141 5a4 4 0 012.68-1.22 2.16 2.16 0 012.3 2 1.88 1.88 0 010 .41v6.61z"></path><path d="M153.57 12.8V7c0-1.2-.27-1.52-1-1.52a3.1 3.1 0 00-1.92 1v6.37h-1.88v-6.5a5.33 5.33 0 00-.33-2.09l1.73-.48a2.58 2.58 0 01.32 1.22 4 4 0 012.69-1.22 2.16 2.16 0 012.29 2.43v6.59z"></path><path d="M159.84 8.92v.19c0 1.21.46 2.5 2.18 2.5a3.3 3.3 0 002.19-.87l.79 1.16a4.78 4.78 0 01-3.17 1.17c-2.47 0-4-1.8-4-4.58a4.78 4.78 0 011.1-3.44 3.34 3.34 0 012.69-1.18 3.37 3.37 0 012.41.9c.76.7 1.15 1.77 1.15 3.82V9zm1.69-3.67c-1.08 0-1.66.85-1.66 2.29h3.24c0-1.44-.63-2.29-1.58-2.29"></path><path d="M172.55 12.8a2.31 2.31 0 01-.15-.68 2.88 2.88 0 01-2.15.87c-2.24 0-3.59-1.76-3.59-4.49s1.52-4.64 3.63-4.64a2.49 2.49 0 011.9.8s-.05-.68-.05-1.44V0l1.86.3v9.45a9.52 9.52 0 00.28 3.05zm-.41-6.7a2.09 2.09 0 00-1.6-.72c-1.21 0-1.77 1-1.77 3.1 0 1.94.38 2.91 1.82 2.91a1.82 1.82 0 001.53-.83z"></path><path d="M180.61 13c-.77 2.12-1.35 3.18-3.42 3.56l-.63-1.24a3 3 0 002.38-2.51h-.61c-.24-1-.57-2-.83-2.73l-2-5.91 1.95-.33 1.61 5.34c.14.52.46 1.84.49 2 0-.07.33-1.32.66-2.38l1.46-4.8h2.05z"></path><path d="M190.19 13a7.74 7.74 0 01-3.95-1l.76-1.52a6.14 6.14 0 003.25 1c1.48 0 2.36-.71 2.36-1.91 0-.88-.56-1.44-1.79-1.79l-1.28-.36a4 4 0 01-2.29-1.44 3 3 0 01-.5-1.76c0-2.22 1.66-3.62 4.08-3.62a6.74 6.74 0 013.81 1.15l-.9 1.41a5.16 5.16 0 00-2.89-.92c-1.18 0-2 .64-2 1.63 0 .77.41 1.13 1.59 1.48l1.43.42c1.73.5 3 1.61 3 3.41 0 2-1.62 3.85-4.67 3.85"></path><path d="M200.15 13c-2.39 0-3.73-1.69-3.73-4.52 0-3.19 1.91-4.72 3.87-4.72a3.24 3.24 0 012.43 1l-1 1.27a2.11 2.11 0 00-1.47-.67 1.46 1.46 0 00-1.39.88 6 6 0 00-.36 2.45 3.55 3.55 0 00.58 2.39 1.55 1.55 0 001.17.51 2.52 2.52 0 001.77-.87l.9 1.16a3.63 3.63 0 01-2.77 1.12"></path><path d="M209.6 12.8v-6c0-1.09-.38-1.4-1.12-1.4a3.2 3.2 0 00-2.11 1.07v6.3h-1.93V2.35a8.77 8.77 0 00-.18-1.91l1.93-.44a9 9 0 01.18 2.07V5A3.94 3.94 0 01209 3.81a2.39 2.39 0 012.14 1.07 3.4 3.4 0 01.3 1.72v6.2z"></path><path d="M217.49 13c-2.37 0-3.87-1.8-3.87-4.58s1.53-4.62 3.82-4.62c2.5 0 3.92 1.86 3.92 4.64S219.87 13 217.49 13m0-7.78c-1.21 0-1.73.92-1.73 3.05 0 2.55.64 3.29 1.79 3.29s1.75-.92 1.75-3.12c0-2.47-.71-3.22-1.82-3.22z"></path><path d="M226.8 13c-2.38 0-3.88-1.8-3.88-4.58s1.53-4.62 3.82-4.62c2.5 0 3.92 1.86 3.92 4.64S229.19 13 226.8 13m0-7.78c-1.22 0-1.73.92-1.73 3.05 0 2.55.64 3.29 1.78 3.29s1.75-.92 1.75-3.12c0-2.47-.69-3.22-1.8-3.22"></path><path d="M234.71 13c-1.92 0-1.92-1.73-1.92-2.48V3a14.79 14.79 0 00-.17-2.58l2-.43a10.9 10.9 0 01.15 2.42v7.46c0 1.17.05 1.37.19 1.58a.55.55 0 00.63.14l.31 1.18a3 3 0 01-1.15.22"></path><path fill="#b10027" d="M48.46 18.92H236.6v.73H48.46z"></path><path fill-rule="evenodd" d="M19.66 46.42S4.24 38.34 1 21.05C-.39 13.42.07 1.36.07 1.36h39.1s.45 12.09-1 19.69C35 38.34 19.67 46.42 19.67 46.42"></path><path fill="#fff" fill-rule="evenodd" d="M19.63 46S4.71 37.56 1.57 20.82C.19 13.48.64 1.75.64 1.75H38.5s.45 11.73-.93 19.07C34.44 37.6 19.63 46 19.63 46"></path><path fill="#fff" fill-rule="evenodd" d="M19.65 45.83S4.72 37.44 1.59 20.66C.21 13.32.66 1.59.66 1.59h37.86s.45 11.73-.93 19.07c-3.14 16.78-17.94 25.17-17.94 25.17"></path><path d="M19.65 46h-.09c-.15-.09-15-8.63-18.14-25.26-1.37-7.3-.94-19-.93-19.08v-.18h38.2v.17c0 .11.43 11.81-.93 19.07C34.64 37.34 19.88 45.89 19.72 46zM.82 1.79c0 1.45-.34 12.09.94 18.86 3 15.82 16.68 24.26 17.89 25 1.2-.77 14.81-9.16 17.77-25 1.27-6.77 1-17.41.94-18.86z"></path><path fill="#b10027" fill-rule="evenodd" d="M12.04 39.93l15.11-.02-1.69 1.66-1.1.9-9.49.01-1.22-1.1-1.61-1.45z"></path><path fill="#b10027" fill-rule="evenodd" d="M7.96 35.15h23.29l-1.02 1.42-.82.9-19.55.02-.93-1.05-.97-1.29z"></path><path fill="#b10027" fill-rule="evenodd" d="M5.05 30.39h29.13l-1.34 2.33H6.38l-.8-1.22-.53-1.11z"></path><path fill="#b10027" fill-rule="evenodd" d="M1.61 20.75l.24 1.27.29 1.05 35.01-.01.23-1.17.23-1.16-36 .02z"></path><path fill="#b10027" fill-rule="evenodd" d="M.6 1.82h37.95l-.15 5.69-.03 5.62H.78l-.11-2.24-.1-4.36.03-4.71z"></path><path fill="#b10027" fill-rule="evenodd" d="M2.89 25.5l.8 2.41h31.69l.96-2.41H2.89z"></path><path fill="#b10027" fill-rule="evenodd" d="M.99 15.76h37.26l-.08 1.25-.18 1.28-36.74-.02-.22-1.54-.04-.97z"></path><path d="M19.63 46.15h-.08C19.4 46 4.52 37.48 1.4 20.85 0 13.57.46 1.87.47 1.78v-.16h38.19v.16c0 .12.43 11.82-.93 19.07C34.61 37.48 19.86 46 19.7 46.11zM.8 1.91C.76 3.36.47 14 1.74 20.78c3 15.82 16.68 24.24 17.89 25 1.21-.72 14.81-9.15 17.77-25 1.28-6.78 1-17.42.94-18.87z"></path><path d="M.76 13.08h37.56v.25H.76z"></path><path d="M1.1 18.14h36.87v.25H1.1z"></path><path d="M1.45 20.59h36.14v.25H1.45z"></path><path d="M2.04 22.9h34.99v.25H2.04z"></path><path d="M2.85 25.35h33.51v.25H2.85z"></path><path d="M3.66 27.79H35.4v.25H3.66z"></path><path d="M4.94 30.23h29.28v.25H4.94z"></path><path d="M6.33 32.56h26.5v.25H6.33z"></path><path d="M.95 15.64h37.24v.25H.95z"></path><path d="M7.9 35h23.32v.25H7.9z"></path><path d="M9.79 37.33h19.66v.25H9.79z"></path><path d="M12.03 39.77h15.16v.25H12.03z"></path><path d="M14.71 42.32h9.75v.25h-9.75z"></path><path fill="#fff" fill-rule="evenodd" d="M14.81 4.62a1.13 1.13 0 01.19-.76 1.22 1.22 0 01.77-.14h3c.24 0 .3.21.58.2s.32-.2.58-.2h3.6s.44 0 .55.14a1 1 0 01.19.64v.7s1.09-.06 1.12.47-1.12.55-1.12.55v2.89s1.12-.15 1.09.49-1.09.49-1.09.49v.54a1.44 1.44 0 01-.16.67c-.25.36-1.1.26-1.1.26h-7.16s-.61.09-.84-.14a1.16 1.16 0 01-.17-.7v-.55s-1.17.12-1.17-.55 1.17-.55 1.17-.55V6.25s-1.14.15-1.17-.52 1.17-.56 1.17-.56z"></path><path d="M15.52 11.75a1 1 0 01-.68-.22 1.29 1.29 0 01-.22-.81v-.38a1.55 1.55 0 01-1-.26.63.63 0 01-.2-.46.61.61 0 01.19-.44 1.52 1.52 0 011-.28V6.42a1.49 1.49 0 01-.94-.23.65.65 0 01-.22-.45.58.58 0 01.17-.45 1.59 1.59 0 011-.28v-.39a1.27 1.27 0 01.25-.84 1.31 1.31 0 01.86-.19h3a.74.74 0 01.36.12.29.29 0 00.28.06.43.43 0 00.21-.09.63.63 0 01.37-.12h3.6c.08 0 .53 0 .69.22a1.08 1.08 0 01.2.76V5c.35 0 1.1.08 1.13.62a.5.5 0 01-.15.4 1.64 1.64 0 01-1 .32v2.55a1.39 1.39 0 01.93.24.59.59 0 010 .86 1.37 1.37 0 01-.9.23v.41a1.48 1.48 0 01-.18.77c-.29.42-1.15.34-1.25.32h-7.17a1.23 1.23 0 01-.33 0M14.94 10v.72a1 1 0 00.13.59c.13.14.53.13.7.1h7.17c.23 0 .82 0 1-.2a1.13 1.13 0 00.12-.57v-.76h.18a1.34 1.34 0 00.83-.16.26.26 0 00.1-.19.27.27 0 00-.08-.19 1.32 1.32 0 00-.85-.14H24V6.06h.16a1.53 1.53 0 00.91-.23.19.19 0 00.06-.16c0-.27-.65-.33-1-.31H24v-.83a.8.8 0 00-.11-.53.62.62 0 00-.4-.06h-3.62a.31.31 0 00-.2.07.58.58 0 01-.38.13.66.66 0 01-.4-.13.29.29 0 00-.18-.07h-3a1 1 0 00-.62.1 1 1 0 00-.16.6v.77h-.16a1.48 1.48 0 00-.92.19.28.28 0 00-.08.2.36.36 0 00.11.23 1.41 1.41 0 00.88.14h.17v3.14h-.18a1.3 1.3 0 00-.9.19.23.23 0 00-.09.19.28.28 0 00.09.23 1.45 1.45 0 00.89.17z"></path><path d="M19.21 3.99h.25v6.95h-.25z"></path><path fill="#fff" fill-rule="evenodd" d="M19.42 11a.54.54 0 11-.57.57.57.57 0 01.57-.57"></path><path d="M19.41 12.25a.77.77 0 010-1.53.77.77 0 01.77.77.77.77 0 01-.77.73m0-1.14a.42.42 0 10.41.41.41.41 0 00-.41-.41"></path><path d="M19.26 11a1.51 1.51 0 00-.58-.35c-.55-.11-1.44-.18-1.59-.2s-.77.18-.93-.15a1.92 1.92 0 01-.14-1V3.81h.27v5.58a1.69 1.69 0 00.1.8c.08.13.44.1.67 0a14.71 14.71 0 011.64.21 1.64 1.64 0 01.7.4z"></path><path d="M20 11.55l-.08-.23.2-.11a1.44 1.44 0 01.68-.21 6.2 6.2 0 011.61 0 1.07 1.07 0 00.76-.14 1 1 0 00.12-.6V4.77c0-.3-.5-.71-.67-.82l.13-.21c.09.06.77.54.77 1v5.47a1.23 1.23 0 01-.19.77c-.26.29-.87.22-.94.22a5.6 5.6 0 00-1.53 0 1.25 1.25 0 00-.56.19l-.28.13"></path><path d="M19.54 11.07l-.17-.19a1.74 1.74 0 01.71-.41c.61-.12 1.59-.2 1.64-.2a1 1 0 00.71-.06 1.07 1.07 0 00.07-.76V3.84h.25v5.59s.13.68-.15 1-.76.15-.91.13a10.39 10.39 0 00-1.6.2 1.51 1.51 0 00-.58.35"></path><path fill="#fff" fill-rule="evenodd" d="M27 4.62a1.2 1.2 0 01.2-.76 1.19 1.19 0 01.76-.14h3c.25 0 .31.21.58.2s.32-.2.59-.2h3.6s.44 0 .55.14a.91.91 0 01.18.64v.7s1.1-.06 1.13.47-1.13.55-1.13.55v2.89s1.13-.15 1.1.49-1.1.49-1.1.49v.54a1.42 1.42 0 01-.14.67c-.26.36-1.12.26-1.12.26H28s-.61.09-.84-.14a1.24 1.24 0 01-.18-.7v-.55s-1.16.12-1.16-.55S27 9.11 27 9.11V6.28s-1.13.16-1.16-.51S27 5.21 27 5.21z"></path><path d="M27.73 11.75a1 1 0 01-.68-.22 1.23 1.23 0 01-.22-.81v-.39a1.48 1.48 0 01-1-.25.57.57 0 01-.21-.46.6.6 0 01.19-.44 1.56 1.56 0 011-.28V6.42a1.49 1.49 0 01-.94-.23.62.62 0 01-.23-.45.58.58 0 01.17-.45 1.6 1.6 0 011-.28v-.39a1.27 1.27 0 01.25-.84 1.27 1.27 0 01.85-.19h3a.73.73 0 01.35.12.32.32 0 00.23.09.43.43 0 00.21-.09.71.71 0 01.37-.12h3.6c.07 0 .53 0 .69.22a1.08 1.08 0 01.2.76v.5c.35 0 1.1.08 1.14.62a.55.55 0 01-.16.4 1.64 1.64 0 01-1 .32v2.51a1.39 1.39 0 01.93.24.57.57 0 010 .81 1.31 1.31 0 01-.9.24v.38a1.48 1.48 0 01-.18.77c-.3.42-1.15.34-1.25.32H27.7M27.15 10v.72a.94.94 0 00.13.59c.13.14.52.13.7.1h7.17c.21 0 .81 0 1-.2a1.39 1.39 0 00.12-.57v-.76h.17a1.33 1.33 0 00.83-.16.26.26 0 000-.38 1.36 1.36 0 00-.86-.14h-.17V6.06h.16a1.52 1.52 0 00.9-.23.2.2 0 00.07-.16c0-.27-.66-.33-1-.31h-.16v-.83a.87.87 0 00-.12-.53.61.61 0 00-.4-.06h-3.62a.23.23 0 00-.19.07.61.61 0 01-.39.13.68.68 0 01-.39-.14.32.32 0 00-.19-.07h-3a1 1 0 00-.62.1 1.05 1.05 0 00-.15.6v.77H27a1.48 1.48 0 00-.92.19.24.24 0 00-.07.2.34.34 0 00.1.23 1.41 1.41 0 00.88.14h.18v3.15H27a1.3 1.3 0 00-.9.19.25.25 0 00-.09.19.32.32 0 00.09.23 1.49 1.49 0 00.9.17z"></path><path d="M31.38 3.99h.25v6.95h-.25z"></path><path fill="#fff" fill-rule="evenodd" d="M31.59 11a.58.58 0 11-.57.57.58.58 0 01.57-.57"></path><path d="M31.59 12.25a.77.77 0 010-1.53.77.77 0 01.76.77.77.77 0 01-.77.73m0-1.14a.42.42 0 10.42.41.42.42 0 00-.42-.41"></path><path d="M27.62 10.42h.95v.26h-.95z" transform="rotate(-47.37 28.0910087 10.5418063)"></path><path d="M31.44 11a1.51 1.51 0 00-.58-.35c-.55-.11-1.44-.18-1.59-.2s-.77.18-.93-.15a1.92 1.92 0 01-.14-1V3.81h.29v5.58a1.82 1.82 0 00.1.8c.07.13.45.1.67 0a14.71 14.71 0 011.64.21 1.75 1.75 0 01.7.4z"></path><path d="M31 11.51a1.19 1.19 0 01-.25-.13 1.12 1.12 0 00-.56-.18 5.6 5.6 0 00-1.53 0c-.07 0-.69.07-.95-.22a1.29 1.29 0 01-.18-.77V4.74c0-.5.7-1 .76-1l.14.21c-.18.12-.67.51-.67.83v5.42a1 1 0 00.12.62c.14.16.58.15.76.13a6.2 6.2 0 011.61 0 1.52 1.52 0 01.65.22 1 1 0 00.21.1z"></path><path d="M32.2 11.55l-.08-.23.21-.11A1.36 1.36 0 0133 11a6.2 6.2 0 011.61 0 1.06 1.06 0 00.76-.14 1 1 0 00.12-.6V4.77c0-.3-.5-.71-.67-.82l.13-.21c.09.06.77.54.77 1v5.47a1.29 1.29 0 01-.18.77c-.26.29-.88.22-1 .22a5.6 5.6 0 00-1.53 0 1.37 1.37 0 00-.56.18 1 1 0 01-.28.14"></path><path d="M31.72 11.07l-.17-.19a1.74 1.74 0 01.71-.41c.54-.09 1.09-.16 1.64-.2.2 0 .57.07.7-.06s.11-.61.08-.76V3.84H35v5.59s.13.68-.16 1a1.06 1.06 0 01-.9.13 10.53 10.53 0 00-1.6.2 1.51 1.51 0 00-.58.35"></path><path fill-rule="evenodd" d="M20.1 5.46h1.21v.18c-.13.05-.35.19-.35.39v1.76c0 .39.35.25.35.42v.23H20.1v-.23c0-.16.33-.06.33-.42V6.06a.47.47 0 00-.33-.41v-.17"></path><path fill-rule="evenodd" d="M34 5.42c.06 0 .19.12.19.48 0 .09-.08.07 0 .27H34a2.43 2.43 0 00-.33-.38h-.32c-.12.21-.11.07-.11.27 0 .48 1.16.66 1.16 1.53 0 .37-.32.76-.54.76h-.81a2.22 2.22 0 010-.89c0-.09 0-.17.08-.17s.14.82.64.82a.37.37 0 00.33-.33c0-.67-1.22-.66-1.22-1.67a.65.65 0 01.46-.66h.38c.09 0 .12-.07.24-.07"></path><path fill-rule="evenodd" d="M19.24 8.06h-.1s-.63-.65-.63-.9.67-.33.64-1a.78.78 0 00-.56-.72H16.9a.38.38 0 000 .21s.38.25.33.52v1.62c0 .1-.26.31-.26.43a1 1 0 010 .25h1a.88.88 0 000-.23c0-.09-.16-.21-.19-.39a.68.68 0 010-.4h.13a2.58 2.58 0 00.9 1h.39v-.4"></path><path fill-rule="evenodd" d="M32.53 8.11a2.51 2.51 0 00.32.25v.08h-1c0-.06-.08-.1-.08-.13L32 8a2.5 2.5 0 01-.34-.39h-.37c-.11.1-.08.12-.21.33s0 .1.22.32a.67.67 0 01-.07.18h-1.98v-.1c0-.2.32-.13.32-.58V6.31c0-.18 0-.63-.16-.63a1 1 0 00-.49.44h-.1v-.19c0-.06 0-.68.26-.68a2.16 2.16 0 00.55.16h.7c.06 0 .19-.1.35-.1s.16.08.16.21-.12.65-.24.65-.11-.22-.33-.49h-.19a9.12 9.12 0 000 1.81v.39c0 .14.08.32.2.32.41 0 .51-1 .71-1.46 0 0 .39-1.41.5-1.7z"></path><path fill="#fff" fill-rule="evenodd" d="M31.23 7.22l.29-.93.3.76-.59.17z"></path><path fill="#fff" fill-rule="evenodd" d="M31.45 6.52a1.35 1.35 0 01.19.54v.13h-.38c-.05-.19 0-.15 0-.15a1.82 1.82 0 01.08-.52z"></path><path d="M53.89 45.28a13.12 13.12 0 01-6.24-1.67L49 40.74a10.37 10.37 0 005 1.48c2.1 0 3.21-.87 3.21-2.51 0-1.18-.76-1.92-2.4-2.36l-2-.56a5.63 5.63 0 01-3.6-2.28 5.41 5.41 0 01-.77-2.8c0-3.34 2.69-5.66 6.56-5.66a10.73 10.73 0 016.11 1.84l-1.74 2.64a7.86 7.86 0 00-4.27-1.39c-1.52 0-2.55.86-2.55 2.1 0 .95.49 1.42 2 1.85l2.21.6c3 .82 4.64 2.74 4.64 5.45 0 3.69-3 6.14-7.56 6.14"></path><path d="M73.41 44.88v-8.16h-5.26v8.16h-3.66V26.57h3.66v7.11h5.27v-7.11h3.74v18.31h-3.75z"></path><path d="M92.07 44.33a7 7 0 01-3.66.84c-2.77 0-4.58-.76-6-2.58a10.86 10.86 0 01-2.1-6.79c0-3.95 1.53-7.11 4.14-8.56a8.16 8.16 0 013.81-.9c4.88 0 7.88 3.56 7.88 9.3 0 4.13-1.45 7.24-4.11 8.69m-.59-12.83a3.31 3.31 0 00-3.22-2.29 3.2 3.2 0 00-2.84 1.61 10.66 10.66 0 00-.92 5c0 3.16.52 5.14 1.63 5.93a3.61 3.61 0 002.18.63c2.56 0 3.64-2 3.64-6.61a14.87 14.87 0 00-.47-4.25"></path><path d="M108.35 44.88c-.72-1.21-1-1.71-1.72-3-1.82-3.28-2.37-4.18-3-4.47a1.67 1.67 0 00-.58-.16v7.63h-3.63V26.57h6.82a5.07 5.07 0 015.38 4.74 5.8 5.8 0 010 .59c0 2.75-1.83 5-4.09 5.07a3.42 3.42 0 01.76.76c1.06 1.31 4.4 7.11 4.4 7.11zm-1.93-15.1a7 7 0 00-2.08-.26H103v4.95h1.24c1.58 0 2.29-.16 2.77-.6a2.52 2.52 0 00.71-1.84 2.17 2.17 0 00-1.32-2.25"></path><path d="M114.98 44.88V26.57h10.44l-.48 3.01h-6.27v4.24h5.24v3h-5.18v4.9h6.92v3.16h-10.67z"></path><path d="M137.42 44.88l-3.13-7c-1-2.29-2.13-4.88-2.48-6 .13 1.52.16 3.66.19 5.18l.1 7.83h-3.56V26.57h4.09l3.5 7.33a36.52 36.52 0 012 5.18c-.14-1.42-.27-3.76-.29-5l-.09-7.49h3.51v18.29z"></path><path d="M150.31 45.28a13.15 13.15 0 01-6.25-1.67l1.38-2.87a10.36 10.36 0 005 1.48c2.12 0 3.22-.87 3.22-2.51 0-1.18-.76-1.92-2.4-2.36l-2-.56a5.7 5.7 0 01-3.62-2.28 5.4 5.4 0 01-.76-2.8c0-3.34 2.69-5.66 6.56-5.66a10.7 10.7 0 016.1 1.84l-1.73 2.64a7.86 7.86 0 00-4.27-1.39c-1.53 0-2.56.86-2.56 2.1 0 .95.51 1.42 2 1.85l2.21.6c3 .82 4.64 2.74 4.64 5.45 0 3.69-3 6.14-7.55 6.14"></path><path d="M172.07 29.63h-4.38v15.25h-3.73V29.63h-4.48v-3.05h13.16l-.57 3.05z"></path><path d="M174.57 44.88V26.57H185l-.47 3.01h-6.27v4.24h5.24v3h-5.19v4.9h6.93v3.16h-10.67z"></path><path d="M188.12 26.57h3.81v18.31h-3.81z"></path><path d="M204.83 44.88l-3.14-7c-1-2.29-2.13-4.88-2.47-6 .13 1.52.16 3.66.18 5.18l.11 7.83H196V26.57h4l3.51 7.33a35.31 35.31 0 012 5.18c-.13-1.42-.26-3.76-.29-5l-.08-7.49h3.5v18.29z"></path><path d="M226.72 45.2a7.46 7.46 0 01-6-2.53 9.52 9.52 0 01-2.22-6.56 11.69 11.69 0 011.24-5.69 7.86 7.86 0 017-4.24 7.42 7.42 0 014.63 1.45l-1.65 2.5a4.74 4.74 0 00-3-1 3.78 3.78 0 00-3.05 1.57 8.43 8.43 0 00-1 4.72c0 2.5.21 3.9.76 4.89a3.79 3.79 0 003.57 2.04 4.7 4.7 0 003.11-1.21l1.69 2.29a7.5 7.5 0 01-5.09 1.77"></path><path d="M234.35 44.88V26.57h10.42l-.43 3.01h-6.27v4.24h5.24v3h-5.19v4.9h6.94v3.16h-10.71z"></path><path d="M256.85 44.88l-3.14-7c-1-2.29-2.13-4.88-2.48-6 .13 1.52.16 3.66.19 5.18l.1 7.83H248V26.57h4.08l3.51 7.33a38.22 38.22 0 012 5.18c-.13-1.42-.27-3.76-.29-5l-.09-7.49h3.51v18.29z"></path><path d="M275.56 29.63h-4.37v15.25h-3.74V29.63h-4.48v-3.05h13.2l-.61 3.05z"></path><path d="M278.07 44.88V26.57h10.43l-.48 3.01h-6.26v4.24H287v3h-5.19v4.9h6.93v3.16h-10.67z"></path><path d="M300.56 44.88c-.71-1.21-1-1.71-1.71-3-1.82-3.28-2.37-4.18-3.05-4.47a1.67 1.67 0 00-.58-.16v7.63h-3.59V26.57h6.86a5.06 5.06 0 015.34 4.79 4.86 4.86 0 010 .54c0 2.75-1.81 5-4.08 5.07a3.42 3.42 0 01.76.76c1.06 1.31 4.4 7.11 4.4 7.11zm-1.92-15.1a7 7 0 00-2.08-.26h-1.32v4.95h1.24c1.58 0 2.29-.16 2.76-.6A2.53 2.53 0 00300 32a2.17 2.17 0 00-1.32-2.25"></path><path d="M51.83 66.6c-2.68 0-4.36-2-4.36-5.17s1.7-5.2 4.32-5.2c2.81 0 4.41 2.1 4.41 5.22s-1.7 5.15-4.37 5.15m0-8.74c-1.37 0-1.95 1-1.95 3.43 0 2.87.76 3.71 2 3.71s2-1 2-3.51c0-2.81-.8-3.63-2-3.63z"></path><path d="M63.93 66.35v-6.56c0-1.35-.31-1.72-1.13-1.72a3.58 3.58 0 00-2.17 1.12v7.16h-2.11v-7.26a5.64 5.64 0 00-.37-2.34l2-.55a2.75 2.75 0 01.35 1.4 4.7 4.7 0 013.06-1.37A2.44 2.44 0 0166.08 59v7.38z"></path><path d="M84.75 66.35L84.14 58c-.06-.86-.1-1.93-.1-2.34-.1.45-.28 1.3-.53 2.16l-2.46 8.55h-1.92l-2.24-8.17c-.25-.9-.51-2.12-.59-2.57 0 .45-.07 1.74-.13 2.58l-.58 8.16h-2.22l1.24-13.5h3l2.07 7.62c.31 1.14.43 1.89.51 2.29a22.77 22.77 0 01.49-2.29l2.13-7.69h3L87 66.27z"></path><path d="M91.43 62v.16c0 1.37.51 2.81 2.44 2.81a3.61 3.61 0 002.5-.94l.84 1.32a5.38 5.38 0 01-3.55 1.3c-2.8 0-4.58-2-4.58-5.17a5.33 5.33 0 011.19-3.91 4.12 4.12 0 015.73-.32c.86.76 1.28 2 1.28 4.29V62zm1.89-4.13c-1.21 0-1.88 1-1.88 2.56h3.66c0-1.61-.7-2.56-1.78-2.56"></path><path d="M105.77 66.35a2.22 2.22 0 01-.18-.76 3.22 3.22 0 01-2.42 1c-2.52 0-4-2-4-5.05s1.73-5.21 4.11-5.21a2.79 2.79 0 012.13.9s-.07-.77-.07-1.63V52l2.13.33v10.58a11.05 11.05 0 00.32 3.44zm-.48-7.54a2.32 2.32 0 00-1.79-.76c-1.36 0-2 1.09-2 3.48 0 2.18.43 3.28 2 3.28a2.05 2.05 0 001.73-.94z"></path><path d="M111.44 55a1.42 1.42 0 01-1.39-1.42 1.43 1.43 0 011.32-1.52 1.41 1.41 0 011.51 1.31.74.74 0 010 .21 1.44 1.44 0 01-1.44 1.42m-1.07 11.34v-9.72l2.16-.39v10.12z"></path><path d="M122.14 66.76a2.27 2.27 0 01-1.35-1.33 3.39 3.39 0 01-2.72 1.21c-2.29 0-3.28-1.24-3.28-3 0-2.29 1.72-3.43 4.88-3.43h.67v-.53c0-1.13-.19-1.74-1.37-1.74A6 6 0 00116 59.1l-1-1.52a7.41 7.41 0 014.19-1.35 3 3 0 013 1.64 6.57 6.57 0 01.15 2.42v2.83c0 1.33.1 1.76.86 2.29zm-2.23-5.08c-2.15 0-2.79.63-2.79 1.88a1.33 1.33 0 001.13 1.51.87.87 0 00.23 0 2.22 2.22 0 001.78-1V61.7h-.35"></path><path d="M125.92 69.16l-.76-1a1.71 1.71 0 001.32-1.39c0-.12-.15-.3-.42-.41a1.34 1.34 0 01-.84-1.31 1.52 1.52 0 011.52-1.52c1 0 1.76.87 1.76 2.14a3.73 3.73 0 01-2.58 3.46"></path><path d="M140.33 61.19H138v5.16h-2.22V52.84h3.59c2 0 2.69.19 3.43.64a3.84 3.84 0 011.86 3.4 4.15 4.15 0 01-4 4.31 2.29 2.29 0 01-.37 0m1.34-5.87a2.4 2.4 0 00-1.87-.66H138v4.74h1.76c1.66 0 2.42-.76 2.42-2.38a2.33 2.33 0 00-.55-1.7"></path><path d="M150.3 66.6c-2.68 0-4.36-2-4.36-5.17s1.69-5.2 4.31-5.2c2.81 0 4.42 2.1 4.42 5.22S153 66.6 150.3 66.6m0-8.74c-1.37 0-2 1-2 3.43 0 2.87.73 3.71 2 3.71s2-1 2-3.51c0-2.81-.8-3.63-2-3.63z"></path><path d="M159.11 66.56c-2.17 0-2.17-2-2.17-2.79v-8.39a16.45 16.45 0 00-.19-2.89L159 52a11.82 11.82 0 01.18 2.72v8.39c0 1.32.06 1.52.21 1.77a.59.59 0 00.7.16l.35 1.32a3.27 3.27 0 01-1.28.2"></path><path d="M163.3 55a1.41 1.41 0 01-1.39-1.42 1.42 1.42 0 012.84 0A1.45 1.45 0 01163.3 55m-1.08 11.34v-9.72l2.17-.39v10.12z"></path><path d="M170 66.6a2.29 2.29 0 01-2.58-2.53v-6.15h-1.09v-1.45h1.09a19.91 19.91 0 01.1-2.44l2.21-.53a26.9 26.9 0 00-.18 3h2.35l-.55 1.45h-1.81v5.55c0 1.23.26 1.58 1.2 1.58a2.41 2.41 0 00.92-.2l.27 1.29a4.6 4.6 0 01-1.93.46"></path><path d="M174.88 55a1.41 1.41 0 01-1.39-1.42 1.42 1.42 0 112.83-.21v.21a1.44 1.44 0 01-1.44 1.42zm-1.08 11.35v-9.73l2.17-.39v10.12z"></path><path d="M182.51 66.6c-2.69 0-4.19-1.89-4.19-5.07 0-3.59 2.14-5.34 4.34-5.34a3.59 3.59 0 012.74 1.07l-1.07 1.42a2.46 2.46 0 00-1.67-.76 1.66 1.66 0 00-1.52 1 6.63 6.63 0 00-.41 2.75 4 4 0 00.66 2.7 1.74 1.74 0 001.31.56 2.83 2.83 0 002-1l1 1.32a4.16 4.16 0 01-3.2 1.33"></path><path d="M191 66.62a7.79 7.79 0 01-3.81-1.1L188 64a6.92 6.92 0 003.21 1 1.44 1.44 0 001.59-1.27v-.12c0-.76-.49-1.15-1.6-1.38L190 62a2.72 2.72 0 01-2.37-2.72c0-1.85 1.48-3.14 3.67-3.14a6.94 6.94 0 013.27.86l-.71 1.49a5.05 5.05 0 00-2.42-.72c-.92 0-1.53.5-1.53 1.26s.34.92 1.33 1.18l1.23.31c2 .5 2.52 1.6 2.52 2.75 0 2-1.58 3.34-4 3.34"></path><path d="M208.61 66.76a2.3 2.3 0 01-1.35-1.33 3.37 3.37 0 01-2.71 1.21c-2.29 0-3.28-1.24-3.28-3 0-2.29 1.71-3.43 4.88-3.43h.66v-.53c0-1.13-.19-1.74-1.36-1.74a6 6 0 00-2.95 1.13l-1-1.52a7.44 7.44 0 014.2-1.35 2.91 2.91 0 013 1.64 6.8 6.8 0 01.16 2.42v2.83c0 1.33.1 1.76.86 2.29zm-2.22-5.08c-2.15 0-2.8.63-2.8 1.88a1.34 1.34 0 001.13 1.51 1 1 0 00.24 0 2.25 2.25 0 001.78-1.07v-2.32z"></path><path d="M217.25 66.35v-6.56c0-1.35-.32-1.72-1.14-1.72a3.58 3.58 0 00-2.17 1.12v7.16h-2.1v-7.26a5.81 5.81 0 00-.37-2.34l1.95-.55a3 3 0 01.35 1.4 4.63 4.63 0 013-1.37A2.44 2.44 0 01219.4 59v7.38z"></path><path d="M228.37 66.35a2.8 2.8 0 01-.17-.76 3.22 3.22 0 01-2.42 1c-2.52 0-4-2-4-5.05s1.72-5.21 4.09-5.21a2.76 2.76 0 012.13.9s-.05-.77-.05-1.63V52l2.13.33v10.58a10.76 10.76 0 00.31 3.44zm-.46-7.54a2.36 2.36 0 00-1.8-.76c-1.37 0-2 1.09-2 3.48 0 2.18.43 3.28 2 3.28a2.07 2.07 0 001.74-.94z"></path><path d="M242.26 61.19H240v5.16h-2.23V52.84h3.59c2 0 2.7.19 3.44.64a3.84 3.84 0 011.86 3.4 4.17 4.17 0 01-4 4.31 2.16 2.16 0 01-.36 0m1.34-5.87a2.42 2.42 0 00-1.88-.66H240v4.74h1.75c1.67 0 2.43-.76 2.43-2.38a2.39 2.39 0 00-.57-1.7z"></path><path d="M255.19 66.66a2.15 2.15 0 01-.85-1.23 3.64 3.64 0 01-2.82 1.21 3.1 3.1 0 01-2.45-1 3.36 3.36 0 01-.55-2.34v-6.7l2.1-.39v6.63c0 1.22.18 2.12 1.45 2.12a2.38 2.38 0 001.93-1.27v-7.07l2.08-.39v7.44a2.55 2.55 0 00.6 2z"></path><path d="M263.45 66.56a3 3 0 01-2.4-1.13 2.45 2.45 0 01-.27.92h-1.95a5.51 5.51 0 00.25-2.21v-9.27a7.66 7.66 0 00-.25-2.38l2.23-.49a10.83 10.83 0 01.15 2v2.29a6.86 6.86 0 01-.09.9h.07a3.12 3.12 0 012.35-1c2.36 0 3.81 1.93 3.81 5s-1.59 5.34-3.9 5.34m-.36-8.51a2.38 2.38 0 00-1.88 1v4.82a2.55 2.55 0 001.84.86c1.34 0 1.93-1 1.93-3.45 0-1.78-.35-3.23-1.89-3.23"></path><path d="M271.93 66.56c-2.17 0-2.17-2-2.17-2.79v-8.39a16.45 16.45 0 00-.19-2.89l2.2-.49a11.29 11.29 0 01.18 2.72v8.39c0 1.32.06 1.52.21 1.77a.59.59 0 00.7.16l.36 1.32a3.15 3.15 0 01-1.29.2"></path><path d="M276.12 55a1.42 1.42 0 01-1.39-1.42 1.42 1.42 0 012.84 0 1.45 1.45 0 01-1.45 1.42m-1.07 11.34v-9.72l2.17-.39v10.12z"></path><path d="M283.76 66.6c-2.7 0-4.2-1.89-4.2-5.07 0-3.59 2.15-5.34 4.36-5.34a3.59 3.59 0 012.73 1.07l-1.08 1.42a2.41 2.41 0 00-1.65-.76 1.69 1.69 0 00-1.53 1 6.63 6.63 0 00-.41 2.75 4 4 0 00.66 2.7 1.78 1.78 0 001.32.56 2.86 2.86 0 002-.91l1 1.31a4.13 4.13 0 01-3.16 1.27"></path><path d="M298.16 61.19h-2.28v5.16h-2.23V52.84h3.59c2 0 2.7.19 3.44.64a3.81 3.81 0 011.85 3.4 4.15 4.15 0 01-4 4.31 2.16 2.16 0 01-.36 0m1.35-5.87a2.4 2.4 0 00-1.87-.66h-1.76v4.74h1.76c1.65 0 2.42-.76 2.42-2.38a2.38 2.38 0 00-.55-1.7"></path><path d="M308.13 66.6c-2.68 0-4.36-2-4.36-5.17s1.7-5.2 4.32-5.2c2.81 0 4.41 2.1 4.41 5.22s-1.7 5.15-4.37 5.15m0-8.74c-1.38 0-2 1-2 3.43 0 2.87.72 3.71 2 3.71s2-1 2-3.51c0-2.81-.8-3.63-2-3.63z"></path><path d="M316.94 66.56c-2.16 0-2.16-2-2.16-2.79v-8.39a16.46 16.46 0 00-.2-2.89l2.21-.49a12.41 12.41 0 01.18 2.72v8.39c0 1.32 0 1.52.21 1.77a.59.59 0 00.7.16l.35 1.32a3.15 3.15 0 01-1.29.2"></path><path d="M321.14 55a1.41 1.41 0 01-1.39-1.42 1.42 1.42 0 012.83-.21v.21a1.44 1.44 0 01-1.44 1.42m-1.08 11.34v-9.72l2.17-.39v10.12z"></path><path d="M328.77 66.6c-2.69 0-4.2-1.89-4.2-5.07 0-3.59 2.15-5.34 4.35-5.34a3.59 3.59 0 012.74 1.07l-1.07 1.42a2.46 2.46 0 00-1.67-.76 1.69 1.69 0 00-1.52 1 6.62 6.62 0 00-.4 2.75 4 4 0 00.66 2.7 1.73 1.73 0 001.3.56 2.79 2.79 0 002-1l1 1.32a4.12 4.12 0 01-3.2 1.33"></path><path d="M338.74 66.56c-.82 2.38-1.52 3.58-3.81 4l-.7-1.39c1.35-.38 2.1-.94 2.67-2.83h-.68c-.28-1.11-.64-2.19-.94-3l-2.28-6.7 2.19-.37 1.81 6c.15.59.5 2.07.54 2.23 0-.08.38-1.52.77-2.68l1.69-5.33h2.29z"></path><path fill="#fff" d="M3.29 10.37h.95v.25h-.95z" transform="rotate(-47.53 3.7575749 10.493655)"></path><path fill="#fff" fill-rule="evenodd" d="M2.62 4.62a1.2 1.2 0 01.2-.76 1.22 1.22 0 01.77-.14h3c.24 0 .3.21.58.2s.32-.2.58-.2h3.6s.44 0 .55.14a.91.91 0 01.18.64v.7s1.1-.06 1.13.47-1.13.55-1.13.55v2.89s1.13-.15 1.1.49-1.1.49-1.1.49v.54a1.32 1.32 0 01-.15.67c-.25.36-1.1.26-1.1.26H3.67s-.61.09-.84-.14a1.16 1.16 0 01-.17-.7v-.55s-1.17.12-1.17-.55 1.17-.55 1.17-.55V6.25s-1.14.15-1.17-.52 1.17-.56 1.17-.56z"></path><path d="M3.36 11.75a.92.92 0 01-.67-.22 1.24 1.24 0 01-.23-.81v-.38a1.57 1.57 0 01-1-.26.62.62 0 010-.9 1.53 1.53 0 011-.28V6.42a1.38 1.38 0 01-.93-.23.62.62 0 01-.23-.45.58.58 0 01.17-.45 1.59 1.59 0 011-.28v-.39a1.33 1.33 0 01.26-.84 1.27 1.27 0 01.85-.19h3a.73.73 0 01.35.12.32.32 0 00.23.06.47.47 0 00.22-.09.61.61 0 01.37-.12h3.6c.07 0 .53 0 .69.22a1 1 0 01.19.76V5a1.59 1.59 0 011 .27.51.51 0 01.17.35.54.54 0 01-.15.4 1.65 1.65 0 01-1 .32v2.55a1.43 1.43 0 01.94.24.58.58 0 010 .81 1.34 1.34 0 01-.9.24v.41a1.71 1.71 0 01-.18.77c-.31.41-1.16.33-1.25.32H3.68a1.73 1.73 0 01-.32 0M2.78 10v.72a1.09 1.09 0 00.13.59 1 1 0 00.71.1h7.17c.22 0 .81 0 1-.2a1.13 1.13 0 00.12-.57v-.76h.18a1.33 1.33 0 00.83-.16.22.22 0 00.08-.19.2.2 0 00-.07-.19 1.32 1.32 0 00-.85-.14h-.18V6.06h.1a1.4 1.4 0 001-.23.17.17 0 000-.16.18.18 0 000-.13 1.57 1.57 0 00-1-.18h-.16v-.83a.81.81 0 00-.11-.53.61.61 0 00-.4-.06H7.71a.31.31 0 00-.2.07.67.67 0 01-.38.13.62.62 0 01-.4-.14.31.31 0 00-.18-.07h-3a1 1 0 00-.63.1 1 1 0 00-.15.6v.77h-.16a1.48 1.48 0 00-.92.19.24.24 0 00-.07.2.34.34 0 00.1.23 1.41 1.41 0 00.88.14h.18v3.15h-.17a1.44 1.44 0 00-.91.19.32.32 0 00-.08.2.28.28 0 00.09.23 1.48 1.48 0 00.9.17z"></path><path d="M7.02 3.99h.25v6.95h-.25z"></path><path d="M3.51 10.98l-.19-.17.64-.7.18.17-.63.7z"></path><path d="M7.08 11a1.51 1.51 0 00-.58-.35c-.55-.11-1.44-.18-1.59-.2s-.77.18-.93-.15a1.81 1.81 0 01-.14-1V3.81h.24v5.58a1.82 1.82 0 00.1.8c.08.13.45.1.67 0h.05a15 15 0 011.64.21 1.64 1.64 0 01.7.4z"></path><path d="M6.59 11.51a.94.94 0 01-.22-.12 1.37 1.37 0 00-.56-.18 6.53 6.53 0 00-1.53 0c-.07 0-.69.08-1-.21a1.28 1.28 0 01-.18-.76v-5.5c0-.5.7-1 .76-1l.15.21c-.19.12-.67.51-.67.83v5.42a1 1 0 00.11.62c.15.16.59.15.77.13a6.12 6.12 0 011.6 0 1.4 1.4 0 01.66.22.68.68 0 00.21.1z"></path><path d="M7.36 11.07l-.17-.19a1.74 1.74 0 01.71-.41c.54-.09 1.09-.16 1.64-.2.2 0 .57.07.7-.06s.11-.61.08-.76V3.84h.25v5.59s.13.68-.16 1a1.06 1.06 0 01-.9.13 10.53 10.53 0 00-1.6.2 1.44 1.44 0 00-.58.35"></path><path fill-rule="evenodd" d="M6.83 5.54v.07c-.18.28-.26 0-.6 1.21s-.38 1.46-.52 1.46-.24-.73-.5-1.48c-.43-1.24-.59-1.13-.59-1.19v-.07h1v.09c0 .16-.12.2-.12.43 0 0 .25.9.39.9s.41-1 .41-1a2 2 0 00-.18-.33v-.09a4.82 4.82 0 01.76 0"></path><path fill-rule="evenodd" d="M8.81 5.44h.35c0 .13.1.27.1.33v.29h-.1c-.18 0-.27-.29-.45-.29h-.3a.8.8 0 00-.12.45v.23a.21.21 0 00.21.21c.29 0 .35-.29.5-.29s.12.27.12.43 0 .35-.14.35-.19-.28-.51-.28a.28.28 0 00-.2.22v.68a.31.31 0 00.28.32h.05a.67.67 0 00.65-.48h.13a1.57 1.57 0 01.08.29v.26a.85.85 0 01-.3.15H7.67s-.07-.08-.1-.15.27-.22.27-.42V6.2c0-.54-.24-.39-.24-.59v-.07h1a.62.62 0 00.22-.1"></path></g></svg> 